<svg width="185" height="38" viewBox="0 0 185 38" fill="none" xmlns="http://www.w3.org/2000/svg">
<line x1="46" y1="0.5" x2="139" y2="0.5" stroke="white"/>
<path d="M2.64205 25H0.392045L4.48864 13.3636H7.09091L11.1932 25H8.94318L5.83523 15.75H5.74432L2.64205 25ZM2.71591 20.4375H8.85227V22.1307H2.71591V20.4375ZM26.7022 16.5625C26.6492 16.0663 26.4257 15.6799 26.0318 15.4034C25.6416 15.1269 25.134 14.9886 24.509 14.9886C24.0696 14.9886 23.6927 15.0549 23.3784 15.1875C23.064 15.3201 22.8234 15.5 22.6568 15.7273C22.4901 15.9545 22.4049 16.214 22.4011 16.5057C22.4011 16.7481 22.456 16.9583 22.5659 17.1364C22.6795 17.3144 22.8329 17.4659 23.0261 17.5909C23.2193 17.7121 23.4333 17.8144 23.6681 17.8977C23.903 17.9811 24.1397 18.0511 24.3784 18.108L25.4693 18.3807C25.9087 18.483 26.331 18.6212 26.7363 18.7955C27.1454 18.9697 27.5109 19.1894 27.8329 19.4545C28.1587 19.7197 28.4162 20.0398 28.6056 20.4148C28.795 20.7898 28.8897 21.2292 28.8897 21.733C28.8897 22.4148 28.7155 23.0152 28.367 23.5341C28.0185 24.0492 27.5147 24.4527 26.8556 24.7443C26.2003 25.0322 25.4068 25.1761 24.4749 25.1761C23.5696 25.1761 22.7837 25.036 22.117 24.7557C21.4541 24.4754 20.9352 24.0663 20.5602 23.5284C20.189 22.9905 19.9882 22.3352 19.9579 21.5625H22.0318C22.0621 21.9678 22.1871 22.3049 22.4068 22.5739C22.6265 22.8428 22.9124 23.0436 23.2647 23.1761C23.6208 23.3087 24.0185 23.375 24.4579 23.375C24.9162 23.375 25.3177 23.3068 25.6624 23.1705C26.0109 23.0303 26.2837 22.8371 26.4806 22.5909C26.6776 22.3409 26.778 22.0492 26.7818 21.7159C26.778 21.4129 26.689 21.1629 26.5147 20.9659C26.3405 20.7652 26.0962 20.5985 25.7818 20.4659C25.4712 20.3295 25.1075 20.2083 24.6909 20.1023L23.367 19.7614C22.4087 19.5152 21.6511 19.142 21.0943 18.642C20.5412 18.1383 20.2647 17.4697 20.2647 16.6364C20.2647 15.9508 20.4503 15.3504 20.8215 14.8352C21.1965 14.3201 21.706 13.9205 22.3499 13.6364C22.9939 13.3485 23.723 13.2045 24.5374 13.2045C25.3632 13.2045 26.0867 13.3485 26.7079 13.6364C27.3329 13.9205 27.8234 14.3163 28.1795 14.8239C28.5355 15.3277 28.7193 15.9072 28.7306 16.5625H26.7022ZM38.0976 15.1307V13.3636H47.3817V15.1307H43.7851V25H41.6942V15.1307H38.0976ZM57.0115 25V13.3636H61.3751C62.2691 13.3636 63.0191 13.5189 63.6251 13.8295C64.235 14.1402 64.6952 14.5758 65.0058 15.1364C65.3202 15.6932 65.4774 16.3428 65.4774 17.0852C65.4774 17.8314 65.3183 18.4792 65.0001 19.0284C64.6857 19.5739 64.2217 19.9962 63.6081 20.2955C62.9944 20.5909 62.2406 20.7386 61.3467 20.7386H58.2388V18.9886H61.0626C61.5853 18.9886 62.0134 18.9167 62.3467 18.7727C62.68 18.625 62.9263 18.411 63.0853 18.1307C63.2482 17.8466 63.3297 17.4981 63.3297 17.0852C63.3297 16.6723 63.2482 16.3201 63.0853 16.0284C62.9225 15.733 62.6744 15.5095 62.341 15.358C62.0077 15.2027 61.5778 15.125 61.0513 15.125H59.1194V25H57.0115ZM63.0228 19.7273L65.9035 25H63.5513L60.7217 19.7273H63.0228ZM85.6555 19.1818C85.6555 20.4356 85.4206 21.5095 84.9509 22.4034C84.485 23.2936 83.8486 23.9754 83.0418 24.4489C82.2388 24.9223 81.3278 25.1591 80.3089 25.1591C79.2899 25.1591 78.377 24.9223 77.5702 24.4489C76.7672 23.9716 76.1308 23.2879 75.6611 22.3977C75.1952 21.5038 74.9623 20.4318 74.9623 19.1818C74.9623 17.928 75.1952 16.8561 75.6611 15.9659C76.1308 15.072 76.7672 14.3883 77.5702 13.9148C78.377 13.4413 79.2899 13.2045 80.3089 13.2045C81.3278 13.2045 82.2388 13.4413 83.0418 13.9148C83.8486 14.3883 84.485 15.072 84.9509 15.9659C85.4206 16.8561 85.6555 17.928 85.6555 19.1818ZM83.5361 19.1818C83.5361 18.2992 83.3979 17.5549 83.1214 16.9489C82.8486 16.339 82.4698 15.8788 81.985 15.5682C81.5002 15.2538 80.9414 15.0966 80.3089 15.0966C79.6763 15.0966 79.1176 15.2538 78.6327 15.5682C78.1479 15.8788 77.7672 16.339 77.4907 16.9489C77.218 17.5549 77.0816 18.2992 77.0816 19.1818C77.0816 20.0644 77.218 20.8106 77.4907 21.4205C77.7672 22.0265 78.1479 22.4867 78.6327 22.8011C79.1176 23.1117 79.6763 23.267 80.3089 23.267C80.9414 23.267 81.5002 23.1117 81.985 22.8011C82.4698 22.4867 82.8486 22.0265 83.1214 21.4205C83.3979 20.8106 83.5361 20.0644 83.5361 19.1818ZM97.6403 25L94.3562 13.3636H96.6233L98.7199 21.9148H98.8278L101.066 13.3636H103.129L105.373 21.9205H105.476L107.572 13.3636H109.839L106.555 25H104.476L102.146 16.8352H102.055L99.7199 25H97.6403ZM119.541 25H117.291L121.388 13.3636H123.99L128.093 25H125.843L122.735 15.75H122.644L119.541 25ZM119.615 20.4375H125.752V22.1307H119.615V20.4375ZM135.548 15.1307V13.3636H144.832V15.1307H141.235V25H139.144V15.1307H135.548ZM163.906 17.2898H161.781C161.72 16.9413 161.609 16.6326 161.446 16.3636C161.283 16.0909 161.08 15.8598 160.838 15.6705C160.595 15.4811 160.319 15.339 160.008 15.2443C159.702 15.1458 159.37 15.0966 159.014 15.0966C158.381 15.0966 157.821 15.2557 157.332 15.5739C156.844 15.8883 156.461 16.3504 156.184 16.9602C155.908 17.5663 155.77 18.3068 155.77 19.1818C155.77 20.072 155.908 20.822 156.184 21.4318C156.465 22.0379 156.847 22.4962 157.332 22.8068C157.821 23.1136 158.38 23.267 159.008 23.267C159.357 23.267 159.683 23.2216 159.986 23.1307C160.292 23.036 160.567 22.8977 160.809 22.7159C161.056 22.5341 161.262 22.3106 161.429 22.0455C161.599 21.7803 161.717 21.4773 161.781 21.1364L163.906 21.1477C163.827 21.7008 163.654 22.2197 163.389 22.7045C163.128 23.1894 162.785 23.6174 162.361 23.9886C161.936 24.3561 161.44 24.6439 160.872 24.8523C160.304 25.0568 159.673 25.1591 158.98 25.1591C157.957 25.1591 157.044 24.9223 156.241 24.4489C155.438 23.9754 154.806 23.2917 154.344 22.3977C153.881 21.5038 153.65 20.4318 153.65 19.1818C153.65 17.928 153.883 16.8561 154.349 15.9659C154.815 15.072 155.45 14.3883 156.253 13.9148C157.056 13.4413 157.965 13.2045 158.98 13.2045C159.628 13.2045 160.23 13.2955 160.787 13.4773C161.344 13.6591 161.84 13.9261 162.275 14.2784C162.711 14.6269 163.069 15.0549 163.349 15.5625C163.633 16.0663 163.819 16.642 163.906 17.2898ZM173.676 25V13.3636H175.784V18.2898H181.176V13.3636H183.29V25H181.176V20.0568H175.784V25H173.676Z" fill="white"/>
<line x1="46" y1="37.5" x2="139" y2="37.5" stroke="white"/>
</svg>
